HIERARCHY
ROOT root
{
	OFFSET 0.000000 0.000000 0.000000
	CHANNELS 6 Xposition Yposition Zposition Zrotation Yrotation Xrotation
	JOINT lhip
	{
		OFFSET 0.058581 -0.082280 -0.017664
		CHANNELS 3 Zrotation Yrotation Xrotation
		JOINT lknee
		{
			OFFSET 0.043451 -0.386469 0.008037
			CHANNELS 3 Zrotation Yrotation Xrotation
			JOINT lankle
			{
				OFFSET -0.014790 -0.426874 -0.037428
				CHANNELS 3 Zrotation Yrotation Xrotation
				JOINT ltoe
				{
					OFFSET 0.041054 -0.060286 0.122042
					CHANNELS 3 Zrotation Yrotation Xrotation
					End Site
					{
						OFFSET 0.000000 0.000000 0.000000
					}
				}
			}
		}
	}
	JOINT rhip
	{
		OFFSET -0.060310 -0.090513 -0.013543
		CHANNELS 3 Zrotation Yrotation Xrotation
		JOINT rknee
		{
			OFFSET -0.043257 -0.383688 -0.004843
			CHANNELS 3 Zrotation Yrotation Xrotation
			JOINT rankle
			{
				OFFSET 0.019056 -0.420046 -0.034562
				CHANNELS 3 Zrotation Yrotation Xrotation
				JOINT rtoe
				{
					OFFSET -0.034840 -0.062106 0.130323
					CHANNELS 3 Zrotation Yrotation Xrotation
					End Site
					{
						OFFSET 0.000000 0.000000 0.000000
					}
				}
			}
		}
	}
	JOINT lowerback
	{
		OFFSET 0.004439 0.124404 -0.038385
		CHANNELS 3 Zrotation Yrotation Xrotation
		JOINT upperback
		{
			OFFSET 0.004488 0.137956 0.026820
			CHANNELS 3 Zrotation Yrotation Xrotation
			JOINT chest
			{
				OFFSET -0.002265 0.056032 0.002855
				CHANNELS 3 Zrotation Yrotation Xrotation
				JOINT lowerneck
				{
					OFFSET -0.013390 0.211636 -0.033468
					CHANNELS 3 Zrotation Yrotation Xrotation
					JOINT upperneck
					{
						OFFSET 0.010113 0.088937 0.050410
						CHANNELS 3 Zrotation Yrotation Xrotation
						End Site
						{
							OFFSET 0.000000 0.000000 0.000000
						}
					}
				}
				JOINT lclavicle
				{
					OFFSET 0.071702 0.114000 -0.018898
					CHANNELS 3 Zrotation Yrotation Xrotation
					JOINT lshoulder
					{
						OFFSET 0.122921 0.045205 -0.019046
						CHANNELS 3 Zrotation Yrotation Xrotation
						JOINT lelbow
						{
							OFFSET 0.255332 -0.015649 -0.022946
							CHANNELS 3 Zrotation Yrotation Xrotation
							JOINT lwrist
							{
								OFFSET 0.265709 0.012698 -0.007375
								CHANNELS 3 Zrotation Yrotation Xrotation
								End Site
								{
									OFFSET 0.000000 0.000000 0.000000
								}
							}
						}
					}
				}
				JOINT rclavicle
				{
					OFFSET -0.082954 0.112472 -0.023707
					CHANNELS 3 Zrotation Yrotation Xrotation
					JOINT rshoulder
					{
						OFFSET -0.113228 0.046853 -0.008472
						CHANNELS 3 Zrotation Yrotation Xrotation
						JOINT relbow
						{
							OFFSET -0.260127 -0.014369 -0.031269
							CHANNELS 3 Zrotation Yrotation Xrotation
							JOINT rwrist
							{
								OFFSET -0.269108 0.006794 -0.006027
								CHANNELS 3 Zrotation Yrotation Xrotation
								End Site
								{
									OFFSET 0.000000 0.000000 0.000000
								}
							}
						}
					}
				}
			}
		}
	}
}
MOTION
Frames: 12
Frame Time: 0.033333
0.937029 0.162223 1.006914 93.243055 1.267714 84.413760 2.837614 3.668492 10.664961 -3.161853 -2.769502 -1.172981 1.476429 12.097343 -8.750216 0.000000 -0.000000 0.000000 0.065350 -4.847093 3.026734 2.091249 -7.026006 11.843640 1.628653 -9.703504 -11.263309 0.000000 -0.000000 0.000000 1.462758 -0.529909 4.103906 0.745317 -2.444298 5.099060 -0.244583 -1.299578 -1.093763 1.487300 6.623664 5.574393 1.672868 7.835583 9.899324 -24.297440 0.262643 2.877610 -47.742452 -1.661766 12.593169 -1.882127 -31.351856 17.931310 -18.331233 -12.698823 5.354908 20.565967 3.539115 4.895740 48.143865 0.294152 15.701227 -1.542143 29.993983 14.015044 19.081753 6.748351 2.437074 
0.937452 0.162154 1.006847 93.314530 1.244883 84.416332 2.810614 3.601939 10.714711 -3.164060 -2.767925 -1.225215 1.554068 12.082607 -8.723936 0.000000 -0.000000 0.000000 0.049626 -4.814654 3.073597 2.135230 -7.037976 11.728601 1.600711 -9.846336 -11.208167 0.000000 -0.000000 0.000000 1.419440 -0.531688 4.076946 0.761500 -2.475240 5.045603 -0.235230 -1.318507 -1.093680 1.538368 6.555787 5.498465 1.625220 7.810841 10.201734 -24.190319 0.171382 2.875845 -47.897760 -1.601141 12.715602 -1.754272 -31.333664 17.993926 -18.142367 -12.828755 5.095743 20.532004 3.607189 4.965627 48.273899 0.230175 15.825129 -1.746349 30.028617 14.031227 19.017571 6.786334 2.146052 
0.937855 0.162106 1.006816 93.367508 1.242115 84.428050 2.809608 3.568785 10.714850 -3.162952 -2.776166 -1.213584 1.560614 12.075690 -8.741728 0.000000 -0.000000 0.000000 0.062046 -4.792384 3.091625 2.169352 -7.039143 11.625322 1.543262 -9.980313 -11.146747 0.000000 -0.000000 0.000000 1.400883 -0.518624 4.018813 0.788003 -2.474589 5.054208 -0.228959 -1.283301 -1.150034 1.546173 6.453876 5.496001 1.636679 7.719277 10.441405 -24.183559 0.132126 2.885623 -47.913024 -1.671826 12.761932 -1.753383 -31.224496 17.973896 -18.163612 -12.832402 5.138155 20.537044 3.572582 4.967526 48.322235 0.180999 15.831575 -1.774194 29.966302 14.034935 18.973141 6.789547 2.165384 
0.938381 0.161983 1.006766 93.386889 1.243056 84.414082 2.819107 3.549475 10.735622 -3.163796 -2.784571 -1.165034 1.570416 12.084313 -8.782226 0.000000 -0.000000 0.000000 0.071178 -4.799990 3.131919 2.167052 -7.044522 11.629461 1.539697 -10.003453 -11.169519 0.000000 -0.000000 0.000000 1.383211 -0.489765 3.959063 0.810876 -2.445916 5.056123 -0.218516 -1.249747 -1.163094 1.565589 6.389758 5.534416 1.642212 7.612281 10.629214 -24.164999 0.129680 2.863060 -47.921780 -1.754776 12.769827 -1.755807 -31.160113 17.995755 -18.231922 -12.817963 5.172285 20.558268 3.545181 4.974532 48.367477 0.167593 15.842105 -1.782441 29.885290 14.094295 18.920291 6.782712 2.250756 
0.938694 0.161915 1.006694 93.383436 1.241732 84.389166 2.827525 3.547935 10.763950 -3.169462 -2.780437 -1.128385 1.579374 12.085050 -8.815325 0.000000 -0.000000 0.000000 0.069418 -4.818377 3.170055 2.163201 -7.047291 11.648135 1.530874 -9.992802 -11.198379 0.000000 -0.000000 0.000000 1.376902 -0.466565 3.938755 0.817634 -2.429012 5.072238 -0.212037 -1.243686 -1.163441 1.577804 6.383179 5.537787 1.629934 7.597193 10.694878 -24.177971 0.134765 2.856395 -47.889368 -1.783211 12.740240 -1.746238 -31.198250 17.985230 -18.164658 -12.821983 5.171512 20.588387 3.546987 5.005692 48.373985 0.187546 15.837667 -1.786211 29.879622 14.104044 18.860319 6.783751 2.283498 
0.939154 0.161844 1.006577 93.382992 1.239363 84.340025 2.839843 3.556034 10.826385 -3.174337 -2.772689 -1.082077 1.591783 12.073835 -8.874007 0.000000 -0.000000 0.000000 0.060075 -4.854453 3.247907 2.161549 -7.046887 11.669390 1.511144 -9.967266 -11.245310 0.000000 -0.000000 0.000000 1.375949 -0.437437 3.918533 0.821361 -2.416827 5.111016 -0.209174 -1.256605 -1.152401 1.587452 6.404116 5.542285 1.603170 7.614174 10.683288 -24.216082 0.152244 2.832018 -47.805658 -1.798622 12.693054 -1.754756 -31.278900 17.972531 -18.010867 -12.830532 5.181495 20.644600 3.563971 5.047000 48.369815 0.233632 15.828475 -1.787208 29.900697 14.073392 18.764664 6.794732 2.297176 
0.939669 0.161736 1.006443 93.397130 1.235594 84.309109 2.847942 3.548562 10.863513 -3.178627 -2.779112 -1.027944 1.594098 12.066825 -8.927773 0.000000 -0.000000 0.000000 0.053868 -4.871806 3.313892 2.160488 -7.046492 11.685420 1.510604 -9.960505 -11.282577 0.000000 -0.000000 0.000000 1.370704 -0.421589 3.870968 0.822871 -2.414595 5.155342 -0.208772 -1.256594 -1.139553 1.591669 6.419083 5.520368 1.588867 7.634970 10.649066 -24.215397 0.156199 2.808200 -47.765822 -1.813480 12.655472 -1.757048 -31.317650 17.956038 -17.862320 -12.833575 5.185580 20.671441 3.582450 5.073471 48.406256 0.275516 15.812994 -1.783723 29.921305 14.050162 18.640379 6.808003 2.308512 
0.940225 0.161586 1.006320 93.429466 1.228394 84.304331 2.849909 3.524125 10.865648 -3.186546 -2.790703 -0.974417 1.591092 12.059303 -8.969283 0.000000 -0.000000 0.000000 0.051809 -4.873984 3.353926 2.158593 -7.053224 11.688148 1.520790 -9.981049 -11.308921 0.000000 -0.000000 0.000000 1.360736 -0.420094 3.773240 0.823919 -2.425064 5.202686 -0.211208 -1.256493 -1.125577 1.603415 6.446977 5.464614 1.572684 7.642087 10.692520 -24.179878 0.148045 2.803307 -47.798480 -1.849081 12.605154 -1.698598 -31.246523 17.886984 -17.797370 -12.829697 5.166510 20.678734 3.615285 5.120480 48.465499 0.344687 15.801921 -1.793478 29.924943 14.031725 18.503246 6.826440 2.338454 
0.940827 0.161487 1.006240 93.469202 1.222010 84.286012 2.848083 3.510618 10.906482 -3.184028 -2.804900 -0.961914 1.592083 12.042461 -9.000488 0.000000 -0.000000 0.000000 0.045591 -4.890338 3.415991 2.159207 -7.059055 11.679475 1.527462 -9.996984 -11.339562 0.000000 -0.000000 0.000000 1.357820 -0.418934 3.680316 0.826172 -2.439855 5.250814 -0.217283 -1.254942 -1.127050 1.606499 6.471104 5.422636 1.558790 7.630999 10.778233 -24.164840 0.141140 2.788608 -47.845093 -1.877158 12.539148 -1.592825 -31.102843 17.753294 -17.851520 -12.801844 5.146113 20.696048 3.628539 5.148237 48.501221 0.397863 15.787434 -1.801850 29.956541 14.009705 18.424517 6.844908 2.401049 
0.941626 0.161422 1.006138 93.514678 1.215597 84.248730 2.849146 3.514231 11.001349 -3.173092 -2.835737 -0.982880 1.591655 12.019793 -9.032668 0.000000 -0.000000 0.000000 0.032917 -4.914313 3.522618 2.159267 -7.069790 11.657588 1.525851 -9.998333 -11.379665 0.000000 -0.000000 0.000000 1.367327 -0.421374 3.594911 0.819625 -2.440385 5.284566 -0.230746 -1.248700 -1.133832 1.604140 6.449972 5.403504 1.543556 7.614610 10.875694 -24.160800 0.153432 2.749064 -47.886180 -1.890980 12.470618 -1.437831 -30.976503 17.563653 -17.780640 -12.773283 5.122660 20.697231 3.610610 5.144402 48.538807 0.427467 15.777743 -1.775606 30.050363 14.011290 18.345467 6.874661 2.425304 
0.942238 0.161380 1.006077 93.560142 1.210499 84.216656 2.854562 3.514081 11.063692 -3.172515 -2.867036 -0.974241 1.584296 12.004286 -9.064465 0.000000 -0.000000 0.000000 0.024829 -4.928346 3.599342 2.154436 -7.085439 11.664080 1.534567 -10.008776 -11.415382 0.000000 -0.000000 0.000000 1.366295 -0.422964 3.545903 0.815921 -2.439855 5.304270 -0.238212 -1.244602 -1.142798 1.611815 6.418823 5.385704 1.541161 7.601005 10.943020 -24.158393 0.159662 2.725132 -47.892088 -1.892889 12.439270 -1.368425 -30.935587 17.486770 -17.662110 -12.763564 5.118262 20.702147 3.591979 5.126340 48.556270 0.444119 15.763353 -1.756464 30.115777 14.021889 18.268469 6.894302 2.447451 
0.942776 0.161350 1.006042 93.602075 1.204031 84.189741 2.859182 3.506817 11.105167 -3.178308 -2.890769 -0.942109 1.580814 11.991623 -9.105323 0.000000 -0.000000 0.000000 0.021450 -4.936561 3.648787 2.139943 -7.099869 11.700584 1.539931 -10.021190 -11.457004 0.000000 -0.000000 0.000000 1.357477 -0.417050 3.507693 0.815401 -2.435693 5.315678 -0.243938 -1.238362 -1.165937 1.633341 6.378927 5.356513 1.546200 7.562345 11.044894 -24.153311 0.155412 2.730135 -47.877140 -1.888376 12.428703 -1.357477 -30.944664 17.489642 -17.571884 -12.755746 5.115307 20.718719 3.585899 5.127398 48.564369 0.460392 15.746712 -1.760458 30.147914 14.017504 18.194471 6.904713 2.463318 
